# Alias OBJ Model File
# Exported from SketchUp, (c) 2000-2012 Trimble Navigation Limited
# File units = meters

mtllib table1.mtl

g Mesh1 Group_8_1 Component_2_1 Component_3_1 Model

usemtl FrontColor
v 9.88294 10.7679 -12.3481
vt -1.9685 4.72441
vn 0 1 -0
v 9.88294 10.7679 -11.5796
vt 0 4.72441
v 11.1125 10.7679 -11.5796
vt 0 7.87402
v 11.1125 10.7679 -12.3481
vt -1.9685 7.87402
f 1/1/1 2/2/1 3/3/1 4/4/1 

vt 1.9685 7.10543e-15
vn -1 0 6.245e-17
v 9.88294 10.7584 -12.3481
vt 1.9685 0.02537
v 9.88294 10.7584 -11.5796
vt -7.10543e-15 0.02537
vt 0 7.10543e-15
f 1/5/2 5/6/2 6/7/2 2/8/2 

usemtl M_74411a_1
vt 5 5.53598
vn -7.41165e-16 7.64745e-17 -1
v 11.1125 1.39224 -12.3481
vt 4.12857 5.53598
v 9.88294 0.00894068 -12.3481
vt 4 5
vt 4.99911 5
vt 5 5
f 4/9/3 7/10/3 8/11/3 5/12/3 1/13/3 

vt -1 1.61559
vn 1 0 -6.245e-17
v 11.1125 1.39224 -11.5796
vt -2.54401e-08 1.61559
vt 2.22045e-16 2
vt -1 2
f 3/14/4 9/15/4 7/16/4 4/17/4 

vt -5.00089 5.99997
vn 7.41165e-16 -7.64745e-17 1
vt -5 6
v 9.88294 0.00894068 -11.5796
vt -3.99592 6.03875
vt -4.12608 6.57241
vt -5.00184 6.53861
f 2/18/5 6/19/5 10/20/5 9/21/5 3/22/5 

vt 1 8
vt -1.29345e-16 8
vt 1.79204e-09 7.66472
vt 1 7.66472
f 10/23/2 6/24/2 5/25/2 8/26/2 

vt 1 20.5779
vn -0.00124434 -0.999999 7.77093e-20
vt 1 21
v 18.1267 -0.000622177 -12.3481
vt -4.4409e-16 21
v 18.1267 -0.000622177 -11.5796
vt 1.58562e-08 20.5779
f 10/27/6 8/28/6 11/29/6 12/30/6 

v 9.88294 -0.000622177 -11.5796
vt -1.59342e-08 4.66502
vt -0.000888841 4.66502
vt -0.000888825 5
v 9.88294 -0.000622177 -12.3481
vt 0 5
f 13/31/2 10/32/2 8/33/2 14/34/2 

vt 4.14601 7.21566
vn -6.245e-17 0 -1
v 16.8971 1.38268 -12.3481
vt 4.83989 7.19202
vt 4.98886 7.96402
vt 4 8
f 7/35/7 15/36/7 11/37/7 8/38/7 

vt 7.77157e-16 21
vn 0.00177335 0.999998 3.69471e-19
vt -1.97321e-08 21.5543
v 16.8971 1.38268 -11.5796
vt -0.921454 21.5543
vt -0.921454 21
f 7/39/8 9/40/8 16/41/8 15/42/8 

vt -4.84753 7.21473
vn 6.245e-17 0 1
vt -4.14584 7.21311
vt -3.99688 8.00086
vt -4.99688 8.00086
f 16/43/9 9/44/9 10/45/9 12/46/9 

v 16.8971 10.7584 -11.5796
vt -4 8.52698
vt -4.8568 8.52697
vt -4.98321 8
v 18.1267 10.7584 -11.5796
vt -4 8
f 17/47/9 16/48/9 12/49/9 18/50/9 

vt -1.62711e-08 3.61559
vt 1 3.61559
v 16.8971 10.7584 -12.3481
vt 1 4
vt 0 4
f 16/51/2 17/52/2 19/53/2 15/54/2 

usemtl FrontColor
vt 0 25.8408
v 18.1267 10.7584 -12.3481
vt -1.9685 25.8408
vt -1.9685 22.6912
vt 0 22.6912
f 18/55/1 20/56/1 19/57/1 17/58/1 

usemtl M_74411a_1
vt -6.66135e-16 5
vt -1 5
vt -1 4.66502
f 12/31/4 11/59/4 20/60/4 18/61/4 

vt 5 6
vt 6 6
vt 5.87143 6.53598
vt 5 6.53598
f 20/62/7 11/63/7 15/64/7 19/65/7 

g Mesh2 Group_8_2 Component_2_1 Component_3_1 Model

usemtl FrontColor
v 9.88294 10.7679 -33.0976
v 9.88294 10.7679 -32.3291
v 11.1125 10.7679 -32.3291
v 11.1125 10.7679 -33.0976
f 21/1/1 22/2/1 23/3/1 24/4/1 

v 9.88294 10.7584 -33.0976
v 9.88294 10.7584 -32.3291
f 21/5/2 25/6/2 26/7/2 22/8/2 

usemtl M_74411a_1
v 11.1125 1.39224 -33.0976
v 9.88294 0.00894068 -33.0976
f 24/9/3 27/10/3 28/11/3 25/12/3 21/13/3 

v 11.1125 1.39224 -32.3291
f 23/14/4 29/15/4 27/16/4 24/17/4 

v 9.88294 0.00894068 -32.3291
f 22/18/5 26/19/5 30/20/5 29/21/5 23/22/5 

f 30/23/2 26/24/2 25/25/2 28/26/2 

v 18.1267 -0.000622177 -33.0976
v 18.1267 -0.000622177 -32.3291
f 30/27/6 28/28/6 31/29/6 32/30/6 

v 9.88294 -0.000622177 -32.3291
v 9.88294 -0.000622177 -33.0976
f 33/31/2 30/32/2 28/33/2 34/34/2 

v 16.8971 1.38268 -33.0976
f 27/35/7 35/36/7 31/37/7 28/38/7 

v 16.8971 1.38268 -32.3291
f 27/39/8 29/40/8 36/41/8 35/42/8 

f 36/43/9 29/44/9 30/45/9 32/46/9 

v 16.8971 10.7584 -32.3291
v 18.1267 10.7584 -32.3291
f 37/47/9 36/48/9 32/49/9 38/50/9 

v 16.8971 10.7584 -33.0976
f 36/51/2 37/52/2 39/53/2 35/54/2 

usemtl FrontColor
v 18.1267 10.7584 -33.0976
f 38/55/1 40/56/1 39/57/1 37/58/1 

usemtl M_74411a_1
f 32/31/4 31/59/4 40/60/4 38/61/4 

f 40/62/7 31/63/7 35/64/7 39/65/7 

g Mesh3 Component_1_1 Component_2_1 Component_3_1 Model

usemtl WoodFine0007_thumbhuge
v 20.8064 11.6901 -6.96864
vt 4.94978 3.53883
vn 6.245e-17 5.16509e-30 1
v 7.20849 11.6901 -6.96864
vt 4.94978 1.45524
v 7.19315 11.6889 -6.96864
vt 4.94989 1.45289
v 7.17807 11.6853 -6.96864
vt 4.95024 1.45058
v 7.1635 11.6794 -6.96864
vt 4.95081 1.44834
v 7.14971 11.6712 -6.96864
vt 4.95159 1.44623
v 7.13692 11.661 -6.96864
vt 4.95258 1.44427
v 7.12536 11.6488 -6.96864
vt 4.95374 1.4425
v 7.11522 11.6349 -6.96864
vt 4.95507 1.44095
v 7.10668 11.6196 -6.96864
vt 4.95654 1.43964
v 7.09987 11.603 -6.96864
vt 4.95813 1.4386
v 7.09493 11.5856 -6.96864
vt 4.95981 1.43784
v 7.09193 11.5675 -6.96864
vt 4.96154 1.43738
v 7.09092 11.5491 -6.96864
vt 4.96331 1.43722
v 7.09092 10.8957 -6.96864
vt 5.02598 1.43722
v 7.09184 10.879 -6.96864
vt 5.02758 1.43736
v 7.09455 10.8626 -6.96864
vt 5.02915 1.43778
v 7.09903 10.8468 -6.96864
vt 5.03067 1.43846
v 7.10518 10.8318 -6.96864
vt 5.0321 1.43941
v 7.11292 10.8179 -6.96864
vt 5.03344 1.44059
v 7.1221 10.8053 -6.96864
vt 5.03464 1.442
v 7.13256 10.7943 -6.96864
vt 5.0357 1.4436
v 7.14414 10.7851 -6.96864
vt 5.03659 1.44538
v 7.15662 10.7777 -6.96864
vt 5.0373 1.44729
v 7.16981 10.7723 -6.96864
vt 5.03781 1.44931
v 7.18346 10.769 -6.96864
vt 5.03812 1.4514
v 7.19735 10.7679 -6.96864
vt 5.03823 1.45353
v 20.8175 10.7679 -6.96864
vt 5.03823 3.54053
v 20.8314 10.769 -6.96864
vt 5.03812 3.54266
v 20.845 10.7723 -6.96864
vt 5.03781 3.54475
v 20.8582 10.7777 -6.96864
vt 5.0373 3.54677
v 20.8707 10.7851 -6.96864
vt 5.03659 3.54869
v 20.8823 10.7943 -6.96864
vt 5.0357 3.55046
v 20.8928 10.8053 -6.96864
vt 5.03464 3.55207
v 20.9019 10.8179 -6.96864
vt 5.03344 3.55347
v 20.9097 10.8318 -6.96864
vt 5.0321 3.55466
v 20.9158 10.8468 -6.96864
vt 5.03067 3.5556
v 20.9203 10.8626 -6.96864
vt 5.02915 3.55629
v 20.923 10.879 -6.96864
vt 5.02758 3.5567
v 20.9239 10.8957 -6.96864
vt 5.02598 3.55684
v 20.9239 11.5491 -6.96864
vt 4.96331 3.55684
v 20.9229 11.5675 -6.96864
vt 4.96155 3.55669
v 20.9199 11.5856 -6.96864
vt 4.95981 3.55623
v 20.915 11.603 -6.96864
vt 4.95813 3.55547
v 20.9082 11.6196 -6.96864
vt 4.95655 3.55443
v 20.8996 11.6349 -6.96864
vt 4.95507 3.55312
v 20.8895 11.6488 -6.96864
vt 4.95374 3.55157
v 20.8779 11.661 -6.96864
vt 4.95258 3.54979
v 20.8651 11.6712 -6.96864
vt 4.95159 3.54783
v 20.8513 11.6794 -6.96864
vt 4.95081 3.54572
v 20.8368 11.6853 -6.96864
vt 4.95024 3.54349
v 20.8217 11.6889 -6.96864
vt 4.9499 3.54118
f 41/66/10 42/67/10 43/68/10 44/69/10 45/70/10 46/71/10 47/72/10 48/73/10 49/74/10 50/75/10 51/76/10 52/77/10 53/78/10 54/79/10 55/80/10 56/81/10 57/82/10 58/83/10 59/84/10 60/85/10 61/86/10 62/87/10 63/88/10 64/89/10 65/90/10 66/91/10 67/92/10 68/93/10 69/94/10 70/95/10 71/96/10 72/97/10 73/98/10 74/99/10 75/100/10 76/101/10 77/102/10 78/103/10 79/104/10 80/105/10 81/106/10 82/107/10 83/108/10 84/109/10 85/110/10 86/111/10 87/112/10 88/113/10 89/114/10 90/115/10 91/116/10 92/117/10 

v 7.20849 11.6901 -37.7086
vt 3.00449 0.936009
vn -0.0272704 0.999628 1.70304e-18
vt 3.99937 0.936009
vt 3.99937 1.96192
vn 0.0272704 0.999628 -1.70304e-18
v 20.8064 11.6901 -37.7086
vt 3.00449 1.96193
f 93/118/11 42/119/11 41/120/12 94/121/12 

vt 2.32838 1.3575
v 7.19315 11.6889 -37.7086
vt 2.32739 1.3575
vn -0.109056 0.994036 6.81056e-18
vt 2.32739 -1.2808
vt 2.32838 -1.2808
f 93/122/11 95/123/13 43/124/13 42/125/11 

v 20.9239 11.5491 -37.7086
vt 3.02198 2.54673
v 20.9239 10.8957 -37.7086
vt 2.98688 2.54673
v 20.923 10.879 -37.7086
vt 2.98599 2.54665
v 20.9203 10.8626 -37.7086
vt 2.98511 2.54642
v 20.9158 10.8468 -37.7086
vt 2.98426 2.54604
v 20.9097 10.8318 -37.7086
vt 2.98345 2.54551
v 20.9019 10.8179 -37.7086
vt 2.98271 2.54484
v 20.8928 10.8053 -37.7086
vt 2.98203 2.54406
v 20.8823 10.7943 -37.7086
vt 2.98144 2.54316
v 20.8707 10.7851 -37.7086
vt 2.98094 2.54216
v 20.8582 10.7777 -37.7086
vt 2.98054 2.54109
v 20.845 10.7723 -37.7086
vt 2.98026 2.53996
v 20.8314 10.769 -37.7086
vt 2.98008 2.53879
v 20.8175 10.7679 -37.7086
vt 2.98002 2.5376
v 7.19735 10.7679 -37.7086
vt 2.98002 1.36863
v 7.18346 10.769 -37.7086
vt 2.98008 1.36744
v 7.16981 10.7723 -37.7086
vt 2.98026 1.36627
v 7.15662 10.7777 -37.7086
vt 2.98054 1.36514
v 7.14414 10.7851 -37.7086
vt 2.98094 1.36406
v 7.13256 10.7943 -37.7086
vt 2.98144 1.36307
v 7.1221 10.8053 -37.7086
vt 2.98203 1.36217
v 7.11292 10.8179 -37.7086
vt 2.98271 1.36138
v 7.10518 10.8318 -37.7086
vt 2.98345 1.36072
v 7.09903 10.8468 -37.7086
vt 2.98426 1.36019
v 7.09455 10.8626 -37.7086
vt 2.98511 1.35981
v 7.09184 10.879 -37.7086
vt 2.98599 1.35958
v 7.09092 10.8957 -37.7086
vt 2.98688 1.3595
v 7.09092 11.5491 -37.7086
vt 3.02198 1.3595
v 7.09193 11.5675 -37.7086
vt 3.02297 1.35958
v 7.09493 11.5856 -37.7086
vt 3.02395 1.35984
v 7.09987 11.603 -37.7086
vt 3.02488 1.36027
v 7.10668 11.6196 -37.7086
vt 3.02577 1.36085
v 7.11522 11.6349 -37.7086
vt 3.0266 1.36158
v 7.12536 11.6488 -37.7086
vt 3.02734 1.36245
v 7.13692 11.661 -37.7086
vt 3.028 1.36345
v 7.14971 11.6712 -37.7086
vt 3.02855 1.36454
v 7.1635 11.6794 -37.7086
vt 3.02899 1.36573
v 7.17807 11.6853 -37.7086
vt 3.0293 1.36698
vt 3.0295 1.36827
vt 3.02956 1.36959
vt 3.02956 2.53664
v 20.8217 11.6889 -37.7086
vt 3.0295 2.53796
v 20.8368 11.6853 -37.7086
vt 3.0293 2.53925
v 20.8513 11.6794 -37.7086
vt 3.02899 2.5405
v 20.8651 11.6712 -37.7086
vt 3.02855 2.54169
v 20.8779 11.661 -37.7086
vt 3.028 2.54278
v 20.8895 11.6488 -37.7086
vt 3.02734 2.54378
v 20.8996 11.6349 -37.7086
vt 3.0266 2.54465
v 20.9082 11.6196 -37.7086
vt 3.02577 2.54538
v 20.915 11.603 -37.7086
vt 3.02488 2.54596
v 20.9199 11.5856 -37.7086
vt 3.02395 2.54639
v 20.9229 11.5675 -37.7086
vt 3.02297 2.54665
f 96/126/7 97/127/7 98/128/7 99/129/7 100/130/7 101/131/7 102/132/7 103/133/7 104/134/7 105/135/7 106/136/7 107/137/7 108/138/7 109/139/7 110/140/7 111/141/7 112/142/7 113/143/7 114/144/7 115/145/7 116/146/7 117/147/7 118/148/7 119/149/7 120/150/7 121/151/7 122/152/7 123/153/7 124/154/7 125/155/7 126/156/7 127/157/7 128/158/7 129/159/7 130/160/7 131/161/7 132/162/7 133/163/7 95/164/7 93/165/7 94/166/7 134/167/7 135/168/7 136/169/7 137/170/7 138/171/7 139/172/7 140/173/7 141/174/7 142/175/7 143/176/7 144/177/7 

vt 5.01533 2.55492
vn 0.999229 0.0392537 -6.24019e-17
vt 5.01533 2.60209
vn 0.999229 -0.0392537 -6.24019e-17
vt 3.01533 2.60209
vt 3.01533 2.55492
f 81/178/14 80/179/15 97/180/15 96/181/14 

vt 3.02858 2.54474
vn 0.98775 -0.156048 -6.1685e-17
vt 3.02948 2.54474
vt 3.02948 -0.0935611
vt 3.02858 -0.0935611
f 98/182/16 97/183/15 80/184/15 79/185/16 

vt 3.13138 2.54474
vn 0.951998 -0.306104 -5.94523e-17
vt 3.13227 2.54474
vt 3.13227 -0.0935611
vt 3.13138 -0.0935611
f 99/186/17 98/187/16 79/188/16 78/189/17 

vt 3.21947 2.54474
vn 0.895479 -0.445104 -5.59227e-17
vt 3.22036 2.54474
vt 3.22036 -0.0935611
vt 3.21947 -0.0935611
f 100/190/18 99/191/17 78/192/17 77/193/18 

vt 3.29134 2.54474
vn 0.821995 -0.569495 -5.13336e-17
vt 3.29224 2.54474
vt 3.29224 -0.0935611
vt 3.29134 -0.0935611
f 101/194/19 100/195/18 77/196/18 76/197/19 

vt 3.34577 2.54474
vn 0.73564 -0.677372 -4.59408e-17
vt 3.34667 2.54474
vt 3.34667 -0.0935611
vt 3.34577 -0.0935611
f 102/198/20 101/199/19 76/200/19 75/201/20 

vt 3.38183 2.54474
vn 0.640184 -0.768221 -3.99795e-17
vt 3.38272 2.54474
vt 3.38272 -0.0935611
vt 3.38183 -0.0935611
f 103/202/21 102/203/20 75/204/20 74/205/21 

vt 3.39889 2.54474
vn 0.538718 -0.842486 -3.3643e-17
vt 3.39978 2.54474
vt 3.39978 -0.0935611
vt 3.39889 -0.0935611
f 104/206/22 103/207/21 74/208/21 73/209/22 

vt 3.39666 2.54474
vn 0.433555 -0.901127 -2.70755e-17
vt 3.39756 2.54474
vt 3.39756 -0.0935611
vt 3.39666 -0.0935611
f 105/210/23 104/211/22 73/212/22 72/213/23 

vt 3.37519 2.54474
vn 0.326287 -0.945271 -2.03766e-17
vt 3.37609 2.54474
vt 3.37609 -0.0935611
vt 3.37519 -0.0935611
f 106/214/24 105/215/23 72/216/23 71/217/24 

vt 3.33484 2.54474
vn 0.217924 -0.975966 -1.36094e-17
vt 3.33573 2.54474
vt 3.33573 -0.0935611
vt 3.33484 -0.0935611
f 107/218/25 106/219/24 71/220/24 70/221/25 

vt 3.27629 2.54474
vn 0.109056 -0.994036 -6.81056e-18
vt 3.27719 2.54474
vt 3.27719 -0.0935611
vt 3.27629 -0.0935611
f 108/222/26 107/223/25 70/224/25 69/225/26 

vt 3.20056 2.54474
vn 0.0272704 -0.999628 -1.70304e-18
vt 3.20146 2.54474
vt 3.20146 -0.0935611
vt 3.20056 -0.0935611
f 109/226/27 108/227/26 69/228/26 68/229/27 

vt 2 1.99093
vt 2 1
vn -0.0272704 -0.999628 1.70304e-18
vt 3.00089 1
vt 3.00089 1.99093
f 68/230/27 67/231/28 110/232/28 109/233/27 

vt 2.31163 1.3575
vn -0.109056 -0.994036 6.81056e-18
vt 2.31073 1.3575
vt 2.31073 -1.2808
vt 2.31163 -1.2808
f 111/234/29 110/235/28 67/236/28 66/237/29 

vt 2.40258 1.3575
vn -0.217924 -0.975966 1.36094e-17
vt 2.40168 1.3575
vt 2.40168 -1.2808
vt 2.40258 -1.2808
f 112/238/30 111/239/29 66/240/29 65/241/30 

vt 2.49131 1.3575
vn -0.326287 -0.945271 2.03766e-17
vt 2.49042 1.3575
vt 2.49042 -1.2808
vt 2.49131 -1.2808
f 113/242/31 112/243/30 65/244/30 64/245/31 

vt 2.5763 1.3575
vn -0.433555 -0.901127 2.70755e-17
vt 2.57541 1.3575
vt 2.57541 -1.2808
vt 2.5763 -1.2808
f 114/246/32 113/247/31 64/248/31 63/249/32 

vt 2.6561 1.3575
vn -0.538718 -0.842486 3.3643e-17
vt 2.6552 1.3575
vt 2.6552 -1.2808
vt 2.6561 -1.2808
f 115/250/33 114/251/32 63/252/32 62/253/33 

vt 2.72933 1.3575
vn -0.640184 -0.768221 3.99795e-17
vt 2.72844 1.3575
vt 2.72844 -1.2808
vt 2.72933 -1.2808
f 116/254/34 115/255/33 62/256/33 61/257/34 

vt 2.79476 1.3575
vn -0.73564 -0.677372 4.59408e-17
vt 2.79386 1.3575
vt 2.79386 -1.2808
vt 2.79476 -1.2808
f 117/258/35 116/259/34 61/260/34 60/261/35 

vt 2.85124 1.3575
vn -0.821995 -0.569495 5.13336e-17
vt 2.85035 1.3575
vt 2.85035 -1.2808
vt 2.85124 -1.2808
f 118/262/36 117/263/35 60/264/35 59/265/36 

vt 2.89783 1.3575
vn -0.895479 -0.445104 5.59227e-17
vt 2.89693 1.3575
vt 2.89693 -1.2808
vt 2.89783 -1.2808
f 119/266/37 118/267/36 59/268/36 58/269/37 

vt 2.93372 1.3575
vn -0.951998 -0.306104 5.94523e-17
vt 2.93283 1.3575
vt 2.93283 -1.2808
vt 2.93372 -1.2808
f 120/270/38 119/271/37 58/272/37 57/273/38 

vt 2.9583 1.3575
vn -0.98775 -0.156048 6.1685e-17
vt 2.95741 1.3575
vt 2.95741 -1.2808
vt 2.9583 -1.2808
f 121/274/39 120/275/38 57/276/38 56/277/39 

vt 2.97115 1.3575
vn -0.999229 -0.0392537 6.24019e-17
vt 2.97025 1.3575
vt 2.97025 -1.2808
vt 2.97115 -1.2808
f 122/278/40 121/279/39 56/280/39 55/281/40 

vt 3.01533 1.30015
vt 5.01533 1.30015
vt 5.01533 1.34732
vn -0.999229 0.0392537 6.24019e-17
vt 3.01533 1.34732
f 122/282/40 55/283/40 54/284/41 123/285/41 

vt 3.00717 1.3575
vn -0.98775 0.156048 6.1685e-17
vt 3.00618 1.3575
vt 3.00618 -1.2808
vt 3.00717 -1.2808
f 124/286/42 123/287/41 54/288/41 53/289/42 

vt 2.99559 1.3575
vn -0.951998 0.306104 5.94523e-17
vt 2.9946 1.3575
vt 2.9946 -1.2808
vt 2.99559 -1.2808
f 125/290/43 124/291/42 53/292/42 52/293/43 

vt 2.97165 1.3575
vn -0.895479 0.445104 5.59227e-17
vt 2.97066 1.3575
vt 2.97066 -1.2808
vt 2.97165 -1.2808
f 126/294/44 125/295/43 52/296/43 51/297/44 

vt 2.93575 1.3575
vn -0.821995 0.569495 5.13336e-17
vt 2.93476 1.3575
vt 2.93476 -1.2808
vt 2.93575 -1.2808
f 127/298/45 126/299/44 51/300/44 50/301/45 

vt 2.8885 1.3575
vn -0.73564 0.677372 4.59408e-17
vt 2.88751 1.3575
vt 2.88751 -1.2808
vt 2.8885 -1.2808
f 128/302/46 127/303/45 50/304/45 49/305/46 

vt 2.83071 1.3575
vn -0.640184 0.768221 3.99795e-17
vt 2.82972 1.3575
vt 2.82972 -1.2808
vt 2.83071 -1.2808
f 129/306/47 128/307/46 49/308/46 48/309/47 

vt 2.76338 1.3575
vn -0.538718 0.842486 3.3643e-17
vt 2.76239 1.3575
vt 2.76239 -1.2808
vt 2.76338 -1.2808
f 130/310/48 129/311/47 48/312/47 47/313/48 

vt 2.68765 1.3575
vn -0.433555 0.901127 2.70755e-17
vt 2.68666 1.3575
vt 2.68666 -1.2808
vt 2.68765 -1.2808
f 131/314/49 130/315/48 47/316/48 46/317/49 

vt 2.60483 1.3575
vn -0.326287 0.945271 2.03766e-17
vt 2.60384 1.3575
vt 2.60384 -1.2808
vt 2.60483 -1.2808
f 132/318/50 131/319/49 46/320/49 45/321/50 

vt 2.51632 1.3575
vn -0.217924 0.975966 1.36094e-17
vt 2.51533 1.3575
vt 2.51533 -1.2808
vt 2.51632 -1.2808
f 133/322/51 132/323/50 45/324/50 44/325/51 

vt 2.42364 1.3575
vt 2.42265 1.3575
vt 2.42265 -1.2808
vt 2.42364 -1.2808
f 95/326/13 133/327/51 44/328/51 43/329/13 

vt 2.94786 2.54474
vt 2.94885 2.54474
vn 0.98775 0.156048 -6.1685e-17
vt 2.94885 -0.0935611
vt 2.94786 -0.0935611
f 96/330/14 144/331/52 82/332/52 81/333/14 

vt 2.82063 2.54474
vt 2.82162 2.54474
vn 0.951998 0.306104 -5.94523e-17
vt 2.82162 -0.0935611
vt 2.82063 -0.0935611
f 144/334/52 143/335/53 83/336/53 82/337/52 

vt 2.68402 2.54474
vt 2.68501 2.54474
vn 0.895479 0.445104 -5.59227e-17
vt 2.68501 -0.0935611
vt 2.68402 -0.0935611
f 143/338/53 142/339/54 84/340/54 83/341/53 

vt 2.54035 2.54474
vt 2.54134 2.54474
vn 0.821995 0.569495 -5.13336e-17
vt 2.54134 -0.0935611
vt 2.54035 -0.0935611
f 142/342/54 141/343/55 85/344/55 84/345/54 

vt 2.39208 2.54474
vt 2.39307 2.54474
vn 0.73564 0.677372 -4.59408e-17
vt 2.39307 -0.0935611
vt 2.39208 -0.0935611
f 141/346/55 140/347/56 86/348/56 85/349/55 

vt 2.24175 2.54474
vt 2.24275 2.54474
vn 0.640184 0.768221 -3.99795e-17
vt 2.24275 -0.0935611
vt 2.24175 -0.0935611
f 140/350/56 139/351/57 87/352/57 86/353/56 

vt 2.09194 2.54474
vt 2.09293 2.54474
vn 0.538718 0.842486 -3.3643e-17
vt 2.09293 -0.0935611
vt 2.09194 -0.0935611
f 139/354/57 138/355/58 88/356/58 87/357/57 

vt 1.9452 2.54474
vt 1.9462 2.54474
vn 0.433555 0.901127 -2.70755e-17
vt 1.9462 -0.0935611
vt 1.9452 -0.0935611
f 138/358/58 137/359/59 89/360/59 88/361/58 

vt 1.80405 2.54474
vt 1.80505 2.54474
vn 0.326287 0.945271 -2.03766e-17
vt 1.80505 -0.0935611
vt 1.80405 -0.0935611
f 137/362/59 136/363/60 90/364/60 89/365/59 

vt 1.67091 2.54474
vt 1.6719 2.54474
vn 0.217924 0.975966 -1.36094e-17
vt 1.6719 -0.0935611
vt 1.67091 -0.0935611
f 136/366/60 135/367/61 91/368/61 90/369/60 

vt 1.54804 2.54474
vt 1.54903 2.54474
vn 0.109056 0.994036 -6.81056e-18
vt 1.54903 -0.0935611
vt 1.54804 -0.0935611
f 135/370/61 134/371/62 92/372/62 91/373/61 

vt 1.43755 2.54474
vt 1.43854 2.54474
vt 1.43854 -0.0935611
vt 1.43755 -0.0935611
f 134/374/62 94/375/12 41/376/12 92/377/62 

g Mesh4 Group_8_3 Component_2_2 Component_3_2 Model

usemtl FrontColor
f 1/1/1 2/2/1 3/3/1 4/4/1 

f 1/5/2 5/6/2 6/7/2 2/8/2 

usemtl M_74411a_1
f 4/9/3 7/10/3 8/11/3 5/12/3 1/13/3 

f 3/14/4 9/15/4 7/16/4 4/17/4 

f 2/18/5 6/19/5 10/20/5 9/21/5 3/22/5 

f 10/23/2 6/24/2 5/25/2 8/26/2 

f 10/27/6 8/28/6 11/29/6 12/30/6 

f 13/31/2 10/32/2 8/33/2 14/34/2 

f 7/35/7 15/36/7 11/37/7 8/38/7 

f 7/39/8 9/40/8 16/41/8 15/42/8 

f 16/43/9 9/44/9 10/45/9 12/46/9 

f 17/47/9 16/48/9 12/49/9 18/50/9 

f 16/51/2 17/52/2 19/53/2 15/54/2 

usemtl FrontColor
f 18/55/1 20/56/1 19/57/1 17/58/1 

usemtl M_74411a_1
f 12/31/4 11/59/4 20/60/4 18/61/4 

f 20/62/7 11/63/7 15/64/7 19/65/7 

g Mesh5 Group_8_4 Component_2_2 Component_3_2 Model

usemtl FrontColor
f 21/1/1 22/2/1 23/3/1 24/4/1 

f 21/5/2 25/6/2 26/7/2 22/8/2 

usemtl M_74411a_1
f 24/9/3 27/10/3 28/11/3 25/12/3 21/13/3 

f 23/14/4 29/15/4 27/16/4 24/17/4 

f 22/18/5 26/19/5 30/20/5 29/21/5 23/22/5 

f 30/23/2 26/24/2 25/25/2 28/26/2 

f 30/27/6 28/28/6 31/29/6 32/30/6 

f 33/31/2 30/32/2 28/33/2 34/34/2 

f 27/35/7 35/36/7 31/37/7 28/38/7 

f 27/39/8 29/40/8 36/41/8 35/42/8 

f 36/43/9 29/44/9 30/45/9 32/46/9 

f 37/47/9 36/48/9 32/49/9 38/50/9 

f 36/51/2 37/52/2 39/53/2 35/54/2 

usemtl FrontColor
f 38/55/1 40/56/1 39/57/1 37/58/1 

usemtl M_74411a_1
f 32/31/4 31/59/4 40/60/4 38/61/4 

f 40/62/7 31/63/7 35/64/7 39/65/7 

g Mesh6 Component_1_2 Component_2_2 Component_3_2 Model

usemtl WoodFine0007_thumbhuge
f 41/66/10 42/67/10 43/68/10 44/69/10 45/70/10 46/71/10 47/72/10 48/73/10 49/74/10 50/75/10 51/76/10 52/77/10 53/78/10 54/79/10 55/80/10 56/81/10 57/82/10 58/83/10 59/84/10 60/85/10 61/86/10 62/87/10 63/88/10 64/89/10 65/90/10 66/91/10 67/92/10 68/93/10 69/94/10 70/95/10 71/96/10 72/97/10 73/98/10 74/99/10 75/100/10 76/101/10 77/102/10 78/103/10 79/104/10 80/105/10 81/106/10 82/107/10 83/108/10 84/109/10 85/110/10 86/111/10 87/112/10 88/113/10 89/114/10 90/115/10 91/116/10 92/117/10 

f 93/118/11 42/119/11 41/120/12 94/121/12 

f 93/122/11 95/123/13 43/124/13 42/125/11 

f 96/126/7 97/127/7 98/128/7 99/129/7 100/130/7 101/131/7 102/132/7 103/133/7 104/134/7 105/135/7 106/136/7 107/137/7 108/138/7 109/139/7 110/140/7 111/141/7 112/142/7 113/143/7 114/144/7 115/145/7 116/146/7 117/147/7 118/148/7 119/149/7 120/150/7 121/151/7 122/152/7 123/153/7 124/154/7 125/155/7 126/156/7 127/157/7 128/158/7 129/159/7 130/160/7 131/161/7 132/162/7 133/163/7 95/164/7 93/165/7 94/166/7 134/167/7 135/168/7 136/169/7 137/170/7 138/171/7 139/172/7 140/173/7 141/174/7 142/175/7 143/176/7 144/177/7 

f 81/178/14 80/179/15 97/180/15 96/181/14 

f 98/182/16 97/183/15 80/184/15 79/185/16 

f 99/186/17 98/187/16 79/188/16 78/189/17 

f 100/190/18 99/191/17 78/192/17 77/193/18 

f 101/194/19 100/195/18 77/196/18 76/197/19 

f 102/198/20 101/199/19 76/200/19 75/201/20 

f 103/202/21 102/203/20 75/204/20 74/205/21 

f 104/206/22 103/207/21 74/208/21 73/209/22 

f 105/210/23 104/211/22 73/212/22 72/213/23 

f 106/214/24 105/215/23 72/216/23 71/217/24 

f 107/218/25 106/219/24 71/220/24 70/221/25 

f 108/222/26 107/223/25 70/224/25 69/225/26 

f 109/226/27 108/227/26 69/228/26 68/229/27 

f 68/230/27 67/231/28 110/232/28 109/233/27 

f 111/234/29 110/235/28 67/236/28 66/237/29 

f 112/238/30 111/239/29 66/240/29 65/241/30 

f 113/242/31 112/243/30 65/244/30 64/245/31 

f 114/246/32 113/247/31 64/248/31 63/249/32 

f 115/250/33 114/251/32 63/252/32 62/253/33 

f 116/254/34 115/255/33 62/256/33 61/257/34 

f 117/258/35 116/259/34 61/260/34 60/261/35 

f 118/262/36 117/263/35 60/264/35 59/265/36 

f 119/266/37 118/267/36 59/268/36 58/269/37 

f 120/270/38 119/271/37 58/272/37 57/273/38 

f 121/274/39 120/275/38 57/276/38 56/277/39 

f 122/278/40 121/279/39 56/280/39 55/281/40 

f 122/282/40 55/283/40 54/284/41 123/285/41 

f 124/286/42 123/287/41 54/288/41 53/289/42 

f 125/290/43 124/291/42 53/292/42 52/293/43 

f 126/294/44 125/295/43 52/296/43 51/297/44 

f 127/298/45 126/299/44 51/300/44 50/301/45 

f 128/302/46 127/303/45 50/304/45 49/305/46 

f 129/306/47 128/307/46 49/308/46 48/309/47 

f 130/310/48 129/311/47 48/312/47 47/313/48 

f 131/314/49 130/315/48 47/316/48 46/317/49 

f 132/318/50 131/319/49 46/320/49 45/321/50 

f 133/322/51 132/323/50 45/324/50 44/325/51 

f 95/326/13 133/327/51 44/328/51 43/329/13 

f 96/330/14 144/331/52 82/332/52 81/333/14 

f 144/334/52 143/335/53 83/336/53 82/337/52 

f 143/338/53 142/339/54 84/340/54 83/341/53 

f 142/342/54 141/343/55 85/344/55 84/345/54 

f 141/346/55 140/347/56 86/348/56 85/349/55 

f 140/350/56 139/351/57 87/352/57 86/353/56 

f 139/354/57 138/355/58 88/356/58 87/357/57 

f 138/358/58 137/359/59 89/360/59 88/361/58 

f 137/362/59 136/363/60 90/364/60 89/365/59 

f 136/366/60 135/367/61 91/368/61 90/369/60 

f 135/370/61 134/371/62 92/372/62 91/373/61 

f 134/374/62 94/375/12 41/376/12 92/377/62 

