# Alias OBJ Model File
# Exported from SketchUp, (c) 2000-2012 Trimble Navigation Limited
# File units = meters

mtllib floor.mtl

g Mesh1 Model

usemtl Carpet_Diamond_Olive
v 67.6919 0 0.298959
vt -222.086 -0.754489
vn 0 -1 -0
v 0.391774 0 0.298959
vt -1.28535 -0.754489
v 0.391774 0 -91.9011
vt -1.28535 231.933
v 67.6919 0 -91.9011
vt -222.086 231.933
f 1/1/1 2/2/1 3/3/1 4/4/1 

v 0.391774 0 -200.031
vt -1.28535 504.823
v 67.6919 0 -200.031
vt -222.086 504.823
f 3/3/1 5/5/1 6/6/1 4/4/1 

v 105.672 0 -91.9011
vt -346.692 231.933
v 105.672 0 -200.031
vt -346.692 504.823
f 7/7/1 4/4/1 6/6/1 8/8/1 

