# Alias OBJ Model File
# Exported from SketchUp, (c) 2000-2012 Trimble Navigation Limited
# File units = meters

mtllib walls.mtl

g Mesh1 Model

usemtl FrontColor
v 0.391774 45.216 -91.9011
vt -3618.15 1780.16
vn -1 0 -0
v 0.391774 29.671 -109.61
vt -4315.35 1168.15
v 0.391774 0 -91.9011
vt -3618.15 0
f 1/1/1 2/2/1 3/3/1

v 0.391774 45.216 -200.031
vt -7875.24 1780.16
f 2/2/1 1/1/1 4/4/1

v 0.391774 29.671 -129.512
vt -5098.89 1168.15
f 2/2/1 4/4/1 5/5/1

v 0.391774 17.371 -129.512
vt -5098.89 683.896
f 5/5/1 4/4/1 6/6/1

v 0.391774 0 -200.031
vt -7875.24 0
f 7/7/1 6/6/1 4/4/1

v 0.391774 17.371 -109.61
vt -4315.35 683.896
f 7/7/1 8/8/1 6/6/1

f 3/3/1 8/8/1 7/7/1

f 8/8/1 3/3/1 2/2/1

v 21.0958 16.9046 -200.031
vt -830.543 665.537
vn 0 0 -1
vt -15.4242 0
vt -15.4242 1780.16
f 9/9/2 7/10/2 4/11/2

v 67.6919 0 -200.031
vt -2665.03 0
f 7/10/2 9/9/2 10/12/2

v 38.7558 16.9046 -200.031
vt -1525.82 665.537
f 11/13/2 10/12/2 9/9/2

v 67.6919 45.216 -200.031
vt -2665.03 1780.16
f 10/12/2 11/13/2 12/14/2

v 38.7558 32.2946 -200.031
vt -1525.82 1271.44
f 12/14/2 11/13/2 13/15/2

f 12/14/2 13/15/2 4/11/2

v 21.0958 32.2946 -200.031
vt -830.543 1271.44
f 14/16/2 4/11/2 13/15/2

f 9/9/2 4/11/2 14/16/2

v 76.7855 17.3206 -200.031
vt -3023.05 681.915
f 15/17/2 10/12/2 12/14/2

v 105.672 0 -200.031
vt -4160.31 0
f 10/12/2 15/17/2 16/18/2

v 92.3655 17.3206 -200.031
vt -3636.44 681.915
f 17/19/2 16/18/2 15/17/2

v 105.672 45.216 -200.031
vt -4160.31 1780.16
f 16/18/2 17/19/2 18/20/2

v 92.3655 32.9006 -200.031
vt -3636.44 1295.3
f 18/20/2 17/19/2 19/21/2

f 18/20/2 19/21/2 12/14/2

v 76.7855 32.9006 -200.031
vt -3023.05 1295.3
f 20/22/2 12/14/2 19/21/2

f 15/17/2 12/14/2 20/22/2

v 105.672 0 -91.9011
vt 3618.15 0
vn 1 0 -0
v 105.672 0 -129.348
vt 5092.46 0
v 105.672 31.67 -129.348
vt 5092.46 1246.85
v 105.672 31.67 -151.248
vt 5954.66 1246.85
v 105.672 0 -151.248
vt 5954.66 0
vt 7875.24 0
vt 7875.24 1780.16
v 105.672 45.216 -91.9011
vt 3618.15 1780.16
f 21/23/3 22/24/3 23/25/3 24/26/3 25/27/3 16/28/3 18/29/3 26/30/3 

vt 4160.31 0
vn 0 0 1
vt 4160.31 1780.16
v 67.6919 45.216 -91.9011
vt 2665.03 1780.16
v 67.6919 0 -91.9011
vt 2665.03 0
f 21/31/4 26/32/4 27/33/4 28/34/4 

vt 15.4242 0
v 21.3125 0 -91.9011
vt 839.075 0
v 21.3125 31.81 -91.9011
vt 839.075 1252.36
v 40.1925 31.81 -91.9011
vt 1582.38 1252.36
v 40.1925 0 -91.9011
vt 1582.38 0
vt 15.4242 1780.16
f 3/35/4 29/36/4 30/37/4 31/38/4 32/39/4 28/34/4 27/33/4 1/40/4 

v 67.6919 0 -138.137
vt 5438.45 0
v 67.6919 32.24 -138.137
vt 5438.45 1269.29
v 67.6919 32.24 -160.777
vt 6329.78 1269.29
v 67.6919 0 -160.777
vt 6329.78 0
f 28/23/3 33/41/3 34/42/3 35/43/3 36/44/3 10/28/3 12/29/3 27/30/3 

v 67.6919 0 0.298959
vt -11.77 0
v 67.6919 45.216 0.298959
vt -11.77 1780.16
f 37/45/3 28/23/3 27/30/3 38/46/3 

v 0.391774 0 0.298959
v 26.7341 0 0.298959
vt 1052.52 0
v 26.7341 28.42 0.298959
vt 1052.52 1118.9
v 45.4541 28.42 0.298959
vt 1789.53 1118.9
v 45.4541 0 0.298959
vt 1789.53 0
v 0.391774 45.216 0.298959
f 39/35/4 40/47/4 41/48/4 42/49/4 43/50/4 37/34/4 38/33/4 44/40/4 

vt 11.77 1780.16
v 0.391774 31.1376 -18.1969
vt -716.412 1225.89
vt 11.77 0
f 44/51/1 45/52/1 39/53/1

f 45/52/1 44/51/1 1/1/1

v 0.391774 31.1376 -30.8469
vt -1214.44 1225.89
f 45/52/1 1/1/1 46/54/1

v 0.391774 29.4088 -50.5954
vt -1991.94 1157.83
f 46/54/1 1/1/1 47/55/1

v 0.391774 29.4088 -68.7354
vt -2706.12 1157.83
f 47/55/1 1/1/1 48/56/1

v 0.391774 17.6088 -68.7354
vt -2706.12 693.261
f 48/56/1 1/1/1 49/57/1

f 3/3/1 49/57/1 1/1/1

v 0.391774 17.6088 -50.5954
vt -1991.94 693.261
f 3/3/1 50/58/1 49/57/1

v 0.391774 18.4876 -30.8469
vt -1214.44 727.859
f 3/3/1 51/59/1 50/58/1

v 0.391774 18.4876 -18.1969
vt -716.412 727.859
f 3/3/1 52/60/1 51/59/1

f 39/53/1 52/60/1 3/3/1

f 52/60/1 39/53/1 45/52/1

f 50/58/1 51/59/1 47/55/1

f 46/54/1 47/55/1 51/59/1

