# Alias OBJ Model File
# Exported from SketchUp, (c) 2000-2012 Trimble Navigation Limited
# File units = meters

mtllib chair3.mtl

g Mesh1 chair_stool_simple_bar1 chair_stool_simple_quarter1 Simple_stool1 Component_7_1 Model

usemtl _Color_000_18
v 77.4285 6.12515 -176.392
vt 0 0
vn 0 -0.5 0.866025
v 77.4285 6.12515 -176.682
vt 0 0.0824889
vn 0 -0.5 -0.866025
v 79.344 6.12515 -176.682
vt -0.544775 0.0824889
v 79.344 6.12515 -176.392
vt -0.544775 0
f 1/1/1 2/2/2 3/3/2 4/4/1 

vt 0 -0.0412445
v 77.4285 6.37632 -176.537
vt 0 0.0412445
vn 0 1 -2.22045e-16
v 79.344 6.37632 -176.537
vt -0.544775 0.0412445
vt -0.544775 -0.0412445
f 2/5/2 5/6/3 6/7/3 3/8/2 

vt 0.544775 0
vt 0.544775 0.0824889
f 5/2/3 1/1/1 4/9/1 6/10/3 

g Mesh2 chair_stool_simple_bar2 chair_stool_simple_quarter1 Simple_stool1 Component_7_1 Model

v 79.2496 4.78555 -178.255
vn -0.866025 -0.5 5.3027e-17
v 79.5396 4.78555 -178.255
vn 0.866025 -0.5 -5.3027e-17
v 79.5396 4.78555 -176.339
v 79.2496 4.78555 -176.339
f 7/1/4 8/2/5 9/3/5 10/4/4 

v 79.3946 5.03673 -178.255
vn 2.22045e-16 1 -1.35959e-32
v 79.3946 5.03673 -176.339
f 8/5/5 11/6/6 12/7/6 9/8/5 

f 11/2/6 7/1/4 10/9/4 12/10/6 

g Mesh3 chair_stool_simple_bar3 chair_stool_simple_quarter1 Simple_stool1 Component_7_1 Model

v 77.4285 2.10636 -176.169
v 77.4285 2.10636 -176.459
v 79.344 2.10636 -176.459
v 79.344 2.10636 -176.169
f 13/1/1 14/2/2 15/3/2 16/4/1 

v 77.4285 2.35753 -176.314
v 79.344 2.35753 -176.314
f 14/5/2 17/6/3 18/7/3 15/8/2 

f 17/2/3 13/1/1 16/9/1 18/10/3 

g Mesh4 chair_stool_simple_quarter1 Simple_stool1 Component_7_1 Model

usemtl _2
v 77.589 9.98521 -175.211
vt -0.0912605 -0.157392
vn 0.116544 -0.450293 0.885242
v 77.1518 9.98521 -175.211
vt 0.157392 -0.157392
vn 7.69853e-16 -0.707107 0.707107
v 77.1518 9.98521 -178.532
vt 0.157392 1.73131
vn 0 -1 -0
v 80.4722 9.98521 -178.532
vt -1.73131 1.73131
vn 0.707107 -0.707107 -7.69853e-16
v 80.4722 9.98521 -178.094
vt -1.73131 1.48266
vn 0.885242 -0.450293 0.116544
v 80.2459 9.98521 -177.25
vt -1.6026 1.0023
vn 0.824914 -0.450293 0.341691
v 79.8088 9.98521 -176.493
vt -1.35395 0.57162
vn 0.70837 -0.450293 0.543551
v 79.1906 9.98521 -175.875
vt -1.0023 0.219972
vn 0.543551 -0.450293 0.70837
v 78.4334 9.98521 -175.437
vt -0.57162 -0.0286799
vn 0.341691 -0.450293 0.824914
f 19/11/7 20/12/8 21/13/9 22/14/10 23/15/11 24/16/12 25/17/13 26/18/14 27/19/15 

v 77.1518 11.0569 -175.211
vt -0.157392 6.29136
vn 7.69853e-16 0.707107 0.707107
vt -0.157392 5.68176
vt 0.0912605 5.68176
v 77.589 11.0569 -175.211
vt 0.0912605 6.29136
vn 0.116544 0.450293 0.885242
f 28/20/16 20/21/8 19/22/7 29/23/17 

vt 0.0474149 5.68176
vt 0.54472 5.68176
v 78.4334 11.0569 -175.437
vt 0.54472 6.29136
vn 0.341691 0.450293 0.824914
vt 0.0474149 6.29136
f 19/24/7 27/25/15 30/26/18 29/27/17 

vt 0.480698 5.68176
vt 0.978002 5.68176
v 79.1906 11.0569 -175.875
vt 0.978002 6.29136
vn 0.543551 0.450293 0.70837
vt 0.480698 6.29136
f 27/28/15 26/29/14 31/30/19 30/31/18 

vt 0.864276 5.68176
vt 1.36158 5.68176
v 79.8088 11.0569 -176.493
vt 1.36158 6.29136
vn 0.70837 0.450293 0.543551
vt 0.864276 6.29136
f 26/32/14 25/33/13 32/34/20 31/35/19 

vt 1.17201 5.68176
vt 1.66932 5.68176
v 80.2459 11.0569 -177.25
vt 1.66932 6.29136
vn 0.824914 0.450293 0.341691
vt 1.17201 6.29136
f 25/36/13 24/37/12 33/38/21 32/39/20 

vt 1.38293 5.68176
vt 1.88023 5.68176
v 80.4722 11.0569 -178.094
vt 1.88023 6.29136
vn 0.885242 0.450293 0.116544
vt 1.38293 6.29136
f 24/40/12 23/41/11 34/42/22 33/43/21 

vt 1.48266 5.68176
vt 1.73131 5.68176
v 80.4722 11.0569 -178.532
vt 1.73131 6.29136
vn 0.707107 0.707107 -7.69853e-16
vt 1.48266 6.29136
f 23/44/11 22/45/10 35/46/23 34/47/22 

vt 1.73131 1.48266
vt 1.73131 1.73131
v 77.1518 11.0569 -178.532
vt -0.157392 1.73131
vn 0 1 -0
vt -0.157392 -0.157392
vt 0.0912605 -0.157392
vt 0.57162 -0.0286799
vt 1.0023 0.219972
vt 1.35395 0.57162
vt 1.6026 1.0023
f 34/48/22 35/49/23 36/50/24 28/51/16 29/52/17 30/53/18 31/54/19 32/55/20 33/56/21 

g Mesh5 chair_stool_simple_quarter1 Simple_stool1 Component_7_1 Model

usemtl _Color_000_18
v 79.9109 0.0550631 -175.908
vt 0.117457 -0.0203337
vn 0.99863 0.0522642 -0.00273905
v 79.9109 0.025851 -176.465
vt 0.275989 -0.0286534
v 79.3851 10.0453 -176.99
vt 0.425744 2.82492
v 79.3851 10.0745 -176.433
vt 0.267212 2.83324
f 37/57/25 38/58/25 39/59/25 40/60/25 

v 79.3535 -0.00332106 -176.464
vt 0.583214 0.190788
vn 0.052336 -0.997261 0.0522642
vt 0.695544 0.302964
vt 0.583367 0.415294
v 79.3535 0.025891 -175.906
vt 0.471037 0.303118
f 41/61/26 38/62/26 37/63/26 42/64/26 

vt -0.706014 0.0228311
vn -1.00744e-15 -0.052336 -0.99863
vt -0.547482 0.0145228
v 78.8277 10.0161 -176.989
vt -0.397932 2.86811
vt -0.556464 2.87642
f 38/65/27 41/66/27 43/67/27 39/68/27 

vt -0.275989 -0.0286534
vn -0.99863 -0.0522642 0.00273905
vt -0.117457 -0.0203337
v 78.8277 10.0453 -176.431
vt -0.267212 2.83324
vt -0.425744 2.82492
f 41/69/28 42/70/28 44/71/28 43/72/28 

vt 0.547482 0.0145228
vn 1.00744e-15 0.052336 0.99863
vt 0.706014 0.0228311
vt 0.556464 2.87642
vt 0.397932 2.86811
f 42/73/29 37/74/29 40/75/29 44/76/29 

g Mesh6 chair_stool_simple_bar4 chair_stool_simple_quarter2 Simple_stool1 Component_7_1 Model

v 75.5131 6.12515 -176.392
vn -0 -0.5 0.866025
v 75.5131 6.12515 -176.682
f 45/4/30 46/3/2 2/2/2 1/1/30 

v 75.5131 6.37632 -176.537
f 46/8/2 47/7/3 5/6/3 2/5/2 

f 47/10/3 45/9/30 1/1/30 5/2/3 

g Mesh7 chair_stool_simple_bar5 chair_stool_simple_quarter2 Simple_stool1 Component_7_1 Model

v 75.6075 4.78555 -176.339
vn 0.866025 -0.5 5.3027e-17
v 75.3175 4.78555 -176.339
vn -0.866025 -0.5 -5.3027e-17
v 75.3175 4.78555 -178.255
v 75.6075 4.78555 -178.255
f 48/4/31 49/3/32 50/2/32 51/1/31 

v 75.4625 5.03673 -176.339
vn -2.22045e-16 1 -1.35959e-32
v 75.4625 5.03673 -178.255
f 49/8/32 52/7/33 53/6/33 50/5/32 

f 52/10/33 48/9/31 51/1/31 53/2/33 

g Mesh8 chair_stool_simple_bar6 chair_stool_simple_quarter2 Simple_stool1 Component_7_1 Model

v 75.5131 2.10636 -176.169
v 75.5131 2.10636 -176.459
f 54/4/30 55/3/2 14/2/2 13/1/30 

v 75.5131 2.35753 -176.314
f 55/8/2 56/7/3 17/6/3 14/5/2 

f 56/10/3 54/9/30 13/1/30 17/2/3 

g Mesh9 chair_stool_simple_quarter2 Simple_stool1 Component_7_1 Model

usemtl _2
v 76.4236 9.98521 -175.437
vn -0.341691 -0.450293 0.824914
v 75.6665 9.98521 -175.875
vn -0.543551 -0.450293 0.70837
v 75.0483 9.98521 -176.493
vn -0.70837 -0.450293 0.543551
v 74.6112 9.98521 -177.25
vn -0.824914 -0.450293 0.341691
v 74.3849 9.98521 -178.094
vn -0.885242 -0.450293 0.116544
v 74.3849 9.98521 -178.532
vn -0.707107 -0.707107 -7.69853e-16
v 77.7052 9.98521 -178.532
v 77.7052 9.98521 -175.211
vn -7.69853e-16 -0.707107 0.707107
v 77.2681 9.98521 -175.211
vn -0.116544 -0.450293 0.885242
f 57/19/34 58/18/35 59/17/36 60/16/37 61/15/38 62/14/39 63/13/9 64/12/40 65/11/41 

v 76.4236 11.0569 -175.437
vn -0.341691 0.450293 0.824914
v 75.6665 11.0569 -175.875
vn -0.543551 0.450293 0.70837
f 66/31/42 67/30/43 58/29/35 57/28/34 

v 74.6112 11.0569 -177.25
vn -0.824914 0.450293 0.341691
v 75.0483 11.0569 -176.493
vn -0.70837 0.450293 0.543551
v 77.2681 11.0569 -175.211
vn -0.116544 0.450293 0.885242
v 77.7052 11.0569 -175.211
vn -7.69853e-16 0.707107 0.707107
v 77.7052 11.0569 -178.532
v 74.3849 11.0569 -178.532
vn -0.707107 0.707107 -7.69853e-16
v 74.3849 11.0569 -178.094
vn -0.885242 0.450293 0.116544
f 68/56/44 69/55/45 67/54/43 66/53/42 70/52/46 71/51/47 72/50/24 73/49/48 74/48/49 

f 69/39/45 68/38/44 60/37/37 59/36/36 

f 68/43/44 74/42/49 61/41/38 60/40/37 

f 74/47/49 73/46/48 62/45/39 61/44/38 

f 67/35/43 69/34/45 59/33/36 58/32/35 

f 70/27/46 66/26/42 57/25/34 65/24/41 

f 70/23/46 65/22/41 64/21/40 71/20/47 

g Mesh10 chair_stool_simple_quarter2 Simple_stool1 Component_7_1 Model

usemtl _Color_000_18
v 75.472 10.0745 -176.433
vn -0.99863 0.0522642 -0.00273905
v 75.472 10.0453 -176.99
v 74.9462 0.025851 -176.465
v 74.9462 0.0550631 -175.908
f 75/60/50 76/59/50 77/58/50 78/57/50 

vn 1.00744e-15 -0.052336 -0.99863
v 76.0294 10.0161 -176.989
v 75.5036 -0.00332106 -176.464
f 76/68/51 79/67/51 80/66/51 77/65/51 

vn 0.99863 -0.0522642 0.00273905
v 76.0294 10.0453 -176.431
v 75.5036 0.025891 -175.906
f 79/72/52 81/71/52 82/70/52 80/69/52 

vn -1.00744e-15 0.052336 0.99863
f 81/76/53 75/75/53 78/74/53 82/73/53 

vn -0.052336 -0.997261 0.0522642
f 82/64/54 78/63/54 77/62/54 80/61/54 

g Mesh11 chair_stool_simple_bar7 chair_stool_simple_quarter3 Simple_stool1 Component_7_1 Model

v 79.344 6.12515 -180.118
v 79.344 6.12515 -179.828
v 77.4285 6.12515 -179.828
v 77.4285 6.12515 -180.118
f 83/4/2 84/3/1 85/2/1 86/1/2 

v 79.344 6.37632 -179.973
vn 0 1 2.22045e-16
v 77.4285 6.37632 -179.973
f 84/8/1 87/7/55 88/6/55 85/5/1 

f 87/10/55 83/9/2 86/1/2 88/2/55 

g Mesh12 chair_stool_simple_bar8 chair_stool_simple_quarter3 Simple_stool1 Component_7_1 Model

v 79.2496 4.78555 -180.17
v 79.5396 4.78555 -180.17
f 89/4/32 90/3/31 8/2/31 7/1/32 

v 79.3946 5.03673 -180.17
vn 2.22045e-16 1 1.35959e-32
f 90/8/31 91/7/56 11/6/56 8/5/31 

f 91/10/56 89/9/32 7/1/32 11/2/56 

g Mesh13 chair_stool_simple_bar9 chair_stool_simple_quarter3 Simple_stool1 Component_7_1 Model

v 79.344 2.10636 -180.341
v 79.344 2.10636 -180.051
v 77.4285 2.10636 -180.051
v 77.4285 2.10636 -180.341
f 92/4/2 93/3/1 94/2/1 95/1/2 

v 79.344 2.35753 -180.196
v 77.4285 2.35753 -180.196
f 93/8/1 96/7/55 97/6/55 94/5/1 

f 96/10/55 92/9/2 95/1/2 97/2/55 

g Mesh14 chair_stool_simple_quarter3 Simple_stool1 Component_7_1 Model

usemtl _2
v 78.4334 9.98521 -181.072
vn 0.341691 -0.450293 -0.824914
v 79.1906 9.98521 -180.635
vn 0.543551 -0.450293 -0.70837
v 79.8088 9.98521 -180.017
vn 0.70837 -0.450293 -0.543551
v 80.2459 9.98521 -179.26
vn 0.824914 -0.450293 -0.341691
v 80.4722 9.98521 -178.415
vn 0.885242 -0.450293 -0.116544
v 80.4722 9.98521 -177.978
vn 0.707107 -0.707107 7.69853e-16
v 77.1518 9.98521 -177.978
v 77.1518 9.98521 -181.298
vn 7.69853e-16 -0.707107 -0.707107
v 77.589 9.98521 -181.298
vn 0.116544 -0.450293 -0.885242
f 98/19/57 99/18/58 100/17/59 101/16/60 102/15/61 103/14/62 104/13/9 105/12/63 106/11/64 

v 78.4334 11.0569 -181.072
vn 0.341691 0.450293 -0.824914
v 79.1906 11.0569 -180.635
vn 0.543551 0.450293 -0.70837
f 107/31/65 108/30/66 99/29/58 98/28/57 

v 80.2459 11.0569 -179.26
vn 0.824914 0.450293 -0.341691
v 79.8088 11.0569 -180.017
vn 0.70837 0.450293 -0.543551
v 77.589 11.0569 -181.298
vn 0.116544 0.450293 -0.885242
v 77.1518 11.0569 -181.298
vn 7.69853e-16 0.707107 -0.707107
v 77.1518 11.0569 -177.978
v 80.4722 11.0569 -177.978
vn 0.707107 0.707107 7.69853e-16
v 80.4722 11.0569 -178.415
vn 0.885242 0.450293 -0.116544
f 109/56/67 110/55/68 108/54/66 107/53/65 111/52/69 112/51/70 113/50/24 114/49/71 115/48/72 

f 110/39/68 109/38/67 101/37/60 100/36/59 

f 109/43/67 115/42/72 102/41/61 101/40/60 

f 115/47/72 114/46/71 103/45/62 102/44/61 

f 108/35/66 110/34/68 100/33/59 99/32/58 

f 111/27/69 107/26/65 98/25/57 106/24/64 

f 111/23/69 106/22/64 105/21/63 112/20/70 

g Mesh15 chair_stool_simple_quarter3 Simple_stool1 Component_7_1 Model

usemtl _Color_000_18
v 79.3851 10.0745 -180.077
vn 0.99863 0.0522642 0.00273905
v 79.3851 10.0453 -179.52
v 79.9109 0.025851 -180.045
v 79.9109 0.0550631 -180.602
f 116/60/73 117/59/73 118/58/73 119/57/73 

vn -1.00744e-15 -0.052336 0.99863
v 78.8277 10.0161 -179.521
v 79.3535 -0.00332106 -180.046
f 117/68/74 120/67/74 121/66/74 118/65/74 

vn -0.99863 -0.0522642 -0.00273905
v 78.8277 10.0453 -180.078
v 79.3535 0.025891 -180.604
f 120/72/75 122/71/75 123/70/75 121/69/75 

vn 1.00744e-15 0.052336 -0.99863
f 122/76/76 116/75/76 119/74/76 123/73/76 

vn 0.052336 -0.997261 -0.0522642
f 123/64/77 119/63/77 118/62/77 121/61/77 

g Mesh16 chair_stool_simple_bar10 chair_stool_simple_quarter4 Simple_stool1 Component_7_1 Model

vn -0 -0.5 -0.866025
v 75.5131 6.12515 -179.828
v 75.5131 6.12515 -180.118
f 86/1/78 85/2/1 124/3/1 125/4/78 

v 75.5131 6.37632 -179.973
f 85/5/1 88/6/55 126/7/55 124/8/1 

f 88/2/55 86/1/78 125/9/78 126/10/55 

g Mesh17 chair_stool_simple_bar11 chair_stool_simple_quarter4 Simple_stool1 Component_7_1 Model

v 75.3175 4.78555 -180.17
v 75.6075 4.78555 -180.17
f 51/1/5 50/2/4 127/3/4 128/4/5 

vn -2.22045e-16 1 1.35959e-32
v 75.4625 5.03673 -180.17
f 50/5/4 53/6/79 129/7/79 127/8/4 

f 53/2/79 51/1/5 128/9/5 129/10/79 

g Mesh18 chair_stool_simple_bar12 chair_stool_simple_quarter4 Simple_stool1 Component_7_1 Model

v 75.5131 2.10636 -180.051
v 75.5131 2.10636 -180.341
f 95/1/78 94/2/1 130/3/1 131/4/78 

v 75.5131 2.35753 -180.196
f 94/5/1 97/6/55 132/7/55 130/8/1 

f 97/2/55 95/1/78 131/9/78 132/10/55 

g Mesh19 chair_stool_simple_quarter4 Simple_stool1 Component_7_1 Model

usemtl _2
v 77.2681 9.98521 -181.298
vn -0.116544 -0.450293 -0.885242
v 77.7052 9.98521 -181.298
vn -7.69853e-16 -0.707107 -0.707107
v 77.7052 9.98521 -177.978
v 74.3849 9.98521 -177.978
vn -0.707107 -0.707107 7.69853e-16
v 74.3849 9.98521 -178.415
vn -0.885242 -0.450293 -0.116544
v 74.6112 9.98521 -179.26
vn -0.824914 -0.450293 -0.341691
v 75.0483 9.98521 -180.017
vn -0.70837 -0.450293 -0.543551
v 75.6665 9.98521 -180.635
vn -0.543551 -0.450293 -0.70837
v 76.4236 9.98521 -181.072
vn -0.341691 -0.450293 -0.824914
f 133/11/80 134/12/81 135/13/9 136/14/82 137/15/83 138/16/84 139/17/85 140/18/86 141/19/87 

v 77.7052 11.0569 -181.298
vn -7.69853e-16 0.707107 -0.707107
v 77.2681 11.0569 -181.298
vn -0.116544 0.450293 -0.885242
f 142/20/88 134/21/81 133/22/80 143/23/89 

v 76.4236 11.0569 -181.072
vn -0.341691 0.450293 -0.824914
f 133/24/80 141/25/87 144/26/90 143/27/89 

v 75.6665 11.0569 -180.635
vn -0.543551 0.450293 -0.70837
f 141/28/87 140/29/86 145/30/91 144/31/90 

v 75.0483 11.0569 -180.017
vn -0.70837 0.450293 -0.543551
f 140/32/86 139/33/85 146/34/92 145/35/91 

v 74.6112 11.0569 -179.26
vn -0.824914 0.450293 -0.341691
f 139/36/85 138/37/84 147/38/93 146/39/92 

v 74.3849 11.0569 -178.415
vn -0.885242 0.450293 -0.116544
f 138/40/84 137/41/83 148/42/94 147/43/93 

v 74.3849 11.0569 -177.978
vn -0.707107 0.707107 7.69853e-16
f 137/44/83 136/45/82 149/46/95 148/47/94 

v 77.7052 11.0569 -177.978
f 148/48/94 149/49/95 150/50/24 142/51/88 143/52/89 144/53/90 145/54/91 146/55/92 147/56/93 

g Mesh20 chair_stool_simple_quarter4 Simple_stool1 Component_7_1 Model

usemtl _Color_000_18
v 74.9462 0.0550631 -180.602
vn -0.99863 0.0522642 0.00273905
v 74.9462 0.025851 -180.045
v 75.472 10.0453 -179.52
v 75.472 10.0745 -180.077
f 151/57/96 152/58/96 153/59/96 154/60/96 

v 75.5036 -0.00332106 -180.046
vn -0.052336 -0.997261 -0.0522642
v 75.5036 0.025891 -180.604
f 155/61/97 152/62/97 151/63/97 156/64/97 

vn 1.00744e-15 -0.052336 0.99863
v 76.0294 10.0161 -179.521
f 152/65/98 155/66/98 157/67/98 153/68/98 

vn 0.99863 -0.0522642 -0.00273905
v 76.0294 10.0453 -180.078
f 155/69/99 156/70/99 158/71/99 157/72/99 

vn -1.00744e-15 0.052336 -0.99863
f 156/73/100 151/74/100 154/75/100 158/76/100 

g Mesh21 chair_stool_simple_bar13 chair_stool_simple_quarter5 Simple_stool2 Component_7_2 Model

f 1/1/1 2/2/2 3/3/2 4/4/1 

f 2/5/2 5/6/3 6/7/3 3/8/2 

f 5/2/3 1/1/1 4/9/1 6/10/3 

g Mesh22 chair_stool_simple_bar14 chair_stool_simple_quarter5 Simple_stool2 Component_7_2 Model

f 7/1/4 8/2/5 9/3/5 10/4/4 

f 8/5/5 11/6/6 12/7/6 9/8/5 

f 11/2/6 7/1/4 10/9/4 12/10/6 

g Mesh23 chair_stool_simple_bar15 chair_stool_simple_quarter5 Simple_stool2 Component_7_2 Model

f 13/1/1 14/2/2 15/3/2 16/4/1 

f 14/5/2 17/6/3 18/7/3 15/8/2 

f 17/2/3 13/1/1 16/9/1 18/10/3 

g Mesh24 chair_stool_simple_quarter5 Simple_stool2 Component_7_2 Model

usemtl _2
f 19/11/7 20/12/8 21/13/9 22/14/10 23/15/11 24/16/12 25/17/13 26/18/14 27/19/15 

f 28/20/16 20/21/8 19/22/7 29/23/17 

f 19/24/7 27/25/15 30/26/18 29/27/17 

f 27/28/15 26/29/14 31/30/19 30/31/18 

f 26/32/14 25/33/13 32/34/20 31/35/19 

f 25/36/13 24/37/12 33/38/21 32/39/20 

f 24/40/12 23/41/11 34/42/22 33/43/21 

f 23/44/11 22/45/10 35/46/23 34/47/22 

f 34/48/22 35/49/23 36/50/24 28/51/16 29/52/17 30/53/18 31/54/19 32/55/20 33/56/21 

g Mesh25 chair_stool_simple_quarter5 Simple_stool2 Component_7_2 Model

usemtl _Color_000_18
v 79.9109 0.0550631 -175.908
v 79.9109 0.025851 -176.465
f 159/57/25 160/58/25 39/59/25 40/60/25 

v 79.3535 -0.00332106 -176.464
v 79.3535 0.025891 -175.906
f 161/61/26 160/62/26 159/63/26 162/64/26 

f 160/65/27 161/66/27 43/67/27 39/68/27 

f 161/69/28 162/70/28 44/71/28 43/72/28 

f 162/73/29 159/74/29 40/75/29 44/76/29 

g Mesh26 chair_stool_simple_bar16 chair_stool_simple_quarter6 Simple_stool2 Component_7_2 Model

f 45/4/30 46/3/2 2/2/2 1/1/30 

f 46/8/2 47/7/3 5/6/3 2/5/2 

f 47/10/3 45/9/30 1/1/30 5/2/3 

g Mesh27 chair_stool_simple_bar17 chair_stool_simple_quarter6 Simple_stool2 Component_7_2 Model

f 48/4/31 49/3/32 50/2/32 51/1/31 

f 49/8/32 52/7/33 53/6/33 50/5/32 

f 52/10/33 48/9/31 51/1/31 53/2/33 

g Mesh28 chair_stool_simple_bar18 chair_stool_simple_quarter6 Simple_stool2 Component_7_2 Model

f 54/4/30 55/3/2 14/2/2 13/1/30 

f 55/8/2 56/7/3 17/6/3 14/5/2 

f 56/10/3 54/9/30 13/1/30 17/2/3 

g Mesh29 chair_stool_simple_quarter6 Simple_stool2 Component_7_2 Model

usemtl _2
f 57/19/34 58/18/35 59/17/36 60/16/37 61/15/38 62/14/39 63/13/9 64/12/40 65/11/41 

f 66/31/42 67/30/43 58/29/35 57/28/34 

f 68/56/44 69/55/45 67/54/43 66/53/42 70/52/46 71/51/47 72/50/24 73/49/48 74/48/49 

f 69/39/45 68/38/44 60/37/37 59/36/36 

f 68/43/44 74/42/49 61/41/38 60/40/37 

f 74/47/49 73/46/48 62/45/39 61/44/38 

f 67/35/43 69/34/45 59/33/36 58/32/35 

f 70/27/46 66/26/42 57/25/34 65/24/41 

f 70/23/46 65/22/41 64/21/40 71/20/47 

g Mesh30 chair_stool_simple_quarter6 Simple_stool2 Component_7_2 Model

usemtl _Color_000_18
v 74.9462 0.025851 -176.465
v 74.9462 0.0550631 -175.908
f 75/60/50 76/59/50 163/58/50 164/57/50 

v 75.5036 -0.00332106 -176.464
f 76/68/51 79/67/51 165/66/51 163/65/51 

v 75.5036 0.025891 -175.906
f 79/72/52 81/71/52 166/70/52 165/69/52 

f 81/76/53 75/75/53 164/74/53 166/73/53 

f 166/64/54 164/63/54 163/62/54 165/61/54 

g Mesh31 chair_stool_simple_bar19 chair_stool_simple_quarter7 Simple_stool2 Component_7_2 Model

f 83/4/2 84/3/1 85/2/1 86/1/2 

f 84/8/1 87/7/55 88/6/55 85/5/1 

f 87/10/55 83/9/2 86/1/2 88/2/55 

g Mesh32 chair_stool_simple_bar20 chair_stool_simple_quarter7 Simple_stool2 Component_7_2 Model

f 89/4/32 90/3/31 8/2/31 7/1/32 

f 90/8/31 91/7/56 11/6/56 8/5/31 

f 91/10/56 89/9/32 7/1/32 11/2/56 

g Mesh33 chair_stool_simple_bar21 chair_stool_simple_quarter7 Simple_stool2 Component_7_2 Model

f 92/4/2 93/3/1 94/2/1 95/1/2 

f 93/8/1 96/7/55 97/6/55 94/5/1 

f 96/10/55 92/9/2 95/1/2 97/2/55 

g Mesh34 chair_stool_simple_quarter7 Simple_stool2 Component_7_2 Model

usemtl _2
f 98/19/57 99/18/58 100/17/59 101/16/60 102/15/61 103/14/62 104/13/9 105/12/63 106/11/64 

f 107/31/65 108/30/66 99/29/58 98/28/57 

f 109/56/67 110/55/68 108/54/66 107/53/65 111/52/69 112/51/70 113/50/24 114/49/71 115/48/72 

f 110/39/68 109/38/67 101/37/60 100/36/59 

f 109/43/67 115/42/72 102/41/61 101/40/60 

f 115/47/72 114/46/71 103/45/62 102/44/61 

f 108/35/66 110/34/68 100/33/59 99/32/58 

f 111/27/69 107/26/65 98/25/57 106/24/64 

f 111/23/69 106/22/64 105/21/63 112/20/70 

g Mesh35 chair_stool_simple_quarter7 Simple_stool2 Component_7_2 Model

usemtl _Color_000_18
v 79.9109 0.025851 -180.045
v 79.9109 0.0550631 -180.602
f 116/60/73 117/59/73 167/58/73 168/57/73 

v 79.3535 -0.00332106 -180.046
f 117/68/74 120/67/74 169/66/74 167/65/74 

v 79.3535 0.025891 -180.604
f 120/72/75 122/71/75 170/70/75 169/69/75 

f 122/76/76 116/75/76 168/74/76 170/73/76 

f 170/64/77 168/63/77 167/62/77 169/61/77 

g Mesh36 chair_stool_simple_bar22 chair_stool_simple_quarter8 Simple_stool2 Component_7_2 Model

f 86/1/78 85/2/1 124/3/1 125/4/78 

f 85/5/1 88/6/55 126/7/55 124/8/1 

f 88/2/55 86/1/78 125/9/78 126/10/55 

g Mesh37 chair_stool_simple_bar23 chair_stool_simple_quarter8 Simple_stool2 Component_7_2 Model

f 51/1/5 50/2/4 127/3/4 128/4/5 

f 50/5/4 53/6/79 129/7/79 127/8/4 

f 53/2/79 51/1/5 128/9/5 129/10/79 

g Mesh38 chair_stool_simple_bar24 chair_stool_simple_quarter8 Simple_stool2 Component_7_2 Model

f 95/1/78 94/2/1 130/3/1 131/4/78 

f 94/5/1 97/6/55 132/7/55 130/8/1 

f 97/2/55 95/1/78 131/9/78 132/10/55 

g Mesh39 chair_stool_simple_quarter8 Simple_stool2 Component_7_2 Model

usemtl _2
f 133/11/80 134/12/81 135/13/9 136/14/82 137/15/83 138/16/84 139/17/85 140/18/86 141/19/87 

f 142/20/88 134/21/81 133/22/80 143/23/89 

f 133/24/80 141/25/87 144/26/90 143/27/89 

f 141/28/87 140/29/86 145/30/91 144/31/90 

f 140/32/86 139/33/85 146/34/92 145/35/91 

f 139/36/85 138/37/84 147/38/93 146/39/92 

f 138/40/84 137/41/83 148/42/94 147/43/93 

f 137/44/83 136/45/82 149/46/95 148/47/94 

f 148/48/94 149/49/95 150/50/24 142/51/88 143/52/89 144/53/90 145/54/91 146/55/92 147/56/93 

g Mesh40 chair_stool_simple_quarter8 Simple_stool2 Component_7_2 Model

usemtl _Color_000_18
v 74.9462 0.0550631 -180.602
v 74.9462 0.025851 -180.045
f 171/57/96 172/58/96 153/59/96 154/60/96 

v 75.5036 -0.00332106 -180.046
v 75.5036 0.025891 -180.604
f 173/61/97 172/62/97 171/63/97 174/64/97 

f 172/65/98 173/66/98 157/67/98 153/68/98 

f 173/69/99 174/70/99 158/71/99 157/72/99 

f 174/73/100 171/74/100 154/75/100 158/76/100 

